#tb 0: 1/1000
0,          0,          0,        0,    68478, 0cd2876640e71de3a6df7839bd6f0b51
0,         33,         33,        0,    68478, f887db6839c0cddd1ea9ae6bfd2cc16d
0,         66,         66,        0,    68478, ff2a890cf4c4973bf181ba8424c2eadc
0,        100,        100,        0,    68478, f69f2e4f3036a21deb43a0bf4b95771f
0,        133,        133,        0,    68478, 93f511739c19f1a3b356dda39d945c93
0,        166,        166,        0,    68478, 7f79633c93765b504fef0324bd10fdba
0,        200,        200,        0,    68478, d6c53d3937c9a40b227b4486452e0b33
0,        233,        233,        0,    68478, 4e26625e8997ad6fe08ae68fbdfdbfd7
0,        266,        266,        0,    68478, 3bf4c8ac0279351bf904cf57b0fc13c1
0,        300,        300,        0,    68478, 12d64d856025185fa9e610dfa62b05af
